<svg viewBox="0 0 16 16" version="1.1" xmlns="http://www.w3.org/2000/svg" xmlns:xlink="http://www.w3.org/1999/xlink" xml:space="preserve" xmlns:serif="http://www.serif.com/" style="fill-rule:evenodd;clip-rule:evenodd;stroke-linejoin:round;stroke-miterlimit:1.41421;">
    <path fill="currentColor" d="M14.859,16l-13.718,0c-0.629,0 -1.141,-0.512 -1.141,-1.141c0,-2.976 0,-10.742 0,-13.718c0,-0.629 0.512,-1.141 1.141,-1.141c2.976,0 10.742,0 13.718,0c0.629,0 1.141,0.512 1.141,1.141c0,2.976 0,10.742 0,13.718c0,0.629 -0.512,1.141 -1.141,1.141Zm-6.599,-6.78l-1.67,1.78l-3.09,-3.35l0.57,-0.6l2.49,2.61l5.36,-5.66l0.58,0.63l-4.24,4.59Z"/>
</svg>