<svg version="1.1" xmlns="http://www.w3.org/2000/svg" xmlns:xlink="http://www.w3.org/1999/xlink" preserveAspectRatio="xMidYMid meet" viewBox="0 0 16 16" focusable="false">
    <defs>
        <path d="M14.43 0.5C15.02 0.5 15.5 0.98 15.5 1.57C15.5 4.36 15.5 11.64 15.5 14.43C15.5 15.02 15.02 15.5 14.43 15.5C11.64 15.5 4.36 15.5 1.57 15.5C0.98 15.5 0.5 15.02 0.5 14.43C0.5 11.64 0.5 4.36 0.5 1.57C0.5 0.98 0.98 0.5 1.57 0.5C4.36 0.5 11.64 0.5 14.43 0.5Z" id="eFoFe4d"></path>
        <clipPath id="clipc4Kgn70PKV">
            <use xlink:href="#eFoFe4d" opacity="1"></use>
        </clipPath>
        <path d="M11.5 7.5C11.78 7.5 12 7.72 12 8C12 8.1 12 7.9 12 8C12 8.28 11.78 8.5 11.5 8.5C10 8.5 6 8.5 4.5 8.5C4.22 8.5 4 8.28 4 8C4 7.9 4 8.1 4 8C4 7.72 4.22 7.5 4.5 7.5C6 7.5 10 7.5 11.5 7.5Z" id="d1SRlA9Jup"></path>
    </defs>
    <g>
        <g>
            <g>
                <use xlink:href="#eFoFe4d" opacity="1" fill="#ffffff" fill-opacity="1"></use>
                <g clip-path="url(#clipc4Kgn70PKV)">
                    <use xlink:href="#eFoFe4d" opacity="1" fill-opacity="0" stroke="#000000" stroke-width="2" stroke-opacity="1"></use>
                </g>
            </g>
            <g>
                <use xlink:href="#d1SRlA9Jup" opacity="1" fill="#000000" fill-opacity="1"></use>
                <g>
                    <use xlink:href="#d1SRlA9Jup" opacity="1" fill-opacity="0" stroke="#000000" stroke-width="0" stroke-opacity="0.52"></use>
                </g>
            </g>
        </g>
    </g>
</svg>